<svg xmlns="http://www.w3.org/2000/svg" width="1251" height="967"><linearGradient id="a" gradientUnits="userSpaceOnUse" x1="51.865" y1="342.894" x2="847.865" y2="342.894" gradientTransform="matrix(1 0 0 -1 -50.88 826.88)"><stop offset="0" stop-color="#333"/><stop offset=".994" stop-color="#333"/></linearGradient><path fill="url(#a)" d="M42.985.985h1166c23.195 0 42 18.804 42 42v882c0 23.195-18.805 42-42 42h-1166c-23.196 0-42-18.805-42-42v-882c0-23.196 18.804-42 42-42z"/><linearGradient id="b" gradientUnits="userSpaceOnUse" x1="825.371" y1="280.384" x2="1704.371" y2="-89.616" gradientTransform="matrix(1 0 0 -1 -50.88 826.88)"><stop offset="0" stop-color="#333"/><stop offset=".989" stop-color="#666"/></linearGradient><path fill="url(#b)" stroke="#5F6161" stroke-width="2" d="M43.985 3.985h1164c22.091 0 40 17.909 40 40v880c0 22.091-17.909 40-40 40h-1164c-22.091 0-40-17.909-40-40v-880c0-22.091 17.909-40 40-40z"/><g opacity=".502"><path fill="#999" d="M57.773 491.429c-4.028 0-7.294-3.265-7.294-7.294 0-4.027 3.266-7.294 7.294-7.294s7.294 3.267 7.294 7.294c0 4.029-3.266 7.294-7.294 7.294z"/><path d="M55.773 491.429c-4.028 0-7.294-3.265-7.294-7.294 0-4.027 3.266-7.294 7.294-7.294s7.294 3.267 7.294 7.294c0 4.029-3.266 7.294-7.294 7.294z"/></g><linearGradient id="c" gradientUnits="userSpaceOnUse" x1="100.359" y1="342.745" x2="114.947" y2="342.745" gradientTransform="matrix(1 0 0 -1 -50.88 826.88)"><stop offset="0" stop-color="#1E1E1E"/><stop offset=".344" stop-color="#303030"/><stop offset=".989" stop-color="#303030"/></linearGradient><path fill="url(#c)" d="M56.773 491.429c-4.028 0-7.294-3.265-7.294-7.294 0-4.027 3.266-7.294 7.294-7.294s7.294 3.267 7.294 7.294c0 4.029-3.266 7.294-7.294 7.294z"/><rect x="112.485" y="99.485" opacity=".502" stroke="#5F5F5F" enable-background="new" width="1025" height="769" fill="none"/><linearGradient id="d" gradientUnits="userSpaceOnUse" x1="1221.247" y1="364.908" x2="1283.873" y2="308.908" gradientTransform="matrix(1 0 0 -1 -50.88 826.88)"><stop offset="0" stop-color="#333"/><stop offset=".989" stop-color="#666"/></linearGradient><path fill="url(#d)" stroke="#5F6161" stroke-width="2" d="M1194.985 511.985c-15.465 0-28-12.536-28-28 0-15.465 12.535-28 28-28 15.464 0 28 12.535 28 28 0 15.464-12.536 28-28 28z"/><path stroke="#666" stroke-width="2" d="M1190.13 474.383h9.758c2.762 0 5 2.239 5 5v9.758c0 2.762-2.238 5-5 5h-9.758c-2.762 0-5-2.238-5-5v-9.758c0-2.761 2.238-5 5-5z" fill="none"/><path d="M113.011 99.959h1023.944v22.041h-1023.944v-22.041z"/><path opacity=".2" fill="#fff" enable-background="new" d="M119.985 111.985v4h2v-4h-2zm4-1v5h2v-5h-2zm4-2v7h2v-7h-2zm4-1v8h2v-8h-2zm4-3v11h2v-11h-2z"/><path opacity=".2" fill="#fff" enable-background="new" d="M1129.985 111.985v-3h2v3h-2zm0-7h-19v11h19v-2h4v-7h-4v-2zm-2 2v7h-15v-7h15zm-14 1v5h5v-5h-5z"/></svg>