<svg xmlns="http://www.w3.org/2000/svg" width="966" height="1250"><g><linearGradient id="a" gradientUnits="userSpaceOnUse" x1="533.88" y1="1109.88" x2="533.88" y2="313.88" gradientTransform="matrix(1 0 0 -1 -50.88 1109.88)"><stop offset="0" stop-color="#333"/><stop offset=".994" stop-color="#333"/></linearGradient><path fill="url(#a)" d="M42 0h882c23.196 0 42 18.804 42 42v1166c0 23.196-18.804 42-42 42h-882c-23.196 0-42-18.804-42-42v-1166c0-23.196 18.804-42 42-42z"/><linearGradient id="b" gradientUnits="userSpaceOnUse" x1="471.369" y1="336.374" x2="101.368" y2="-542.626" gradientTransform="matrix(1 0 0 -1 -50.88 1109.88)"><stop offset="0" stop-color="#333"/><stop offset=".989" stop-color="#666"/></linearGradient><path fill="url(#b)" stroke="#5F6161" stroke-width="2" d="M43 3h880c22.092 0 40 17.909 40 40v1164c0 22.092-17.908 40-40 40h-880c-22.091 0-40-17.908-40-40v-1164c0-22.091 17.909-40 40-40z"/><g opacity=".502"><path fill="#999" d="M475.556 56.788c0-4.028 3.266-7.294 7.294-7.294s7.294 3.266 7.294 7.294-3.266 7.294-7.294 7.294-7.294-3.266-7.294-7.294z"/><path d="M475.556 54.788c0-4.028 3.266-7.294 7.294-7.294s7.294 3.266 7.294 7.294-3.266 7.294-7.294 7.294-7.294-3.266-7.294-7.294z"/></g><linearGradient id="c" gradientUnits="userSpaceOnUse" x1="533.73" y1="1061.386" x2="533.73" y2="1046.798" gradientTransform="matrix(1 0 0 -1 -50.88 1109.88)"><stop offset="0" stop-color="#1E1E1E"/><stop offset=".344" stop-color="#303030"/><stop offset=".989" stop-color="#303030"/></linearGradient><path fill="url(#c)" d="M475.556 55.788c0-4.028 3.266-7.294 7.294-7.294s7.294 3.266 7.294 7.294-3.266 7.294-7.294 7.294-7.294-3.266-7.294-7.294z"/><rect x="98.5" y="111.5" opacity=".502" fill="#333" stroke="#5F5F5F" enable-background="new" width="769" height="1025"/><linearGradient id="d" gradientUnits="userSpaceOnUse" x1="555.894" y1="-59.502" x2="499.894" y2="-122.128" gradientTransform="matrix(1 0 0 -1 -50.88 1109.88)"><stop offset="0" stop-color="#333"/><stop offset=".989" stop-color="#666"/></linearGradient><path fill="url(#d)" stroke="#5F6161" stroke-width="2" d="M455 1194c0-15.464 12.536-28 28-28s28 12.536 28 28-12.536 28-28 28-28-12.536-28-28z"/><path stroke="#666" stroke-width="2" d="M477.844 1184.145h9.759c2.762 0 5 2.238 5 5v9.759c0 2.761-2.238 5-5 5h-9.759c-2.761 0-5-2.239-5-5v-9.759c0-2.762 2.239-5 5-5z" fill="none"/></g><linearGradient id="e" gradientUnits="userSpaceOnUse" x1="873.12" y1="612.523" x2="1812.454" y2="447.617" gradientTransform="matrix(1 0 0 -1 -50.88 1109.88)"><stop offset="0" stop-color="#fff"/><stop offset=".983" stop-color="#fff" stop-opacity="0"/></linearGradient><path opacity=".102" fill="url(#e)" enable-background="new" d="M448.182 2.5h461.508c41.81 0 53.31 23.25 53.31 54.31v975.766c0 31.652-514.818-682.94-514.818-1030.076z"/><g><rect x="99" y="112" width="768" height="22"/><path fill="#fff" d="M105 124v4h2v-4h-2zm4-1v5h2v-5h-2zm4-2v7h2v-7h-2zm4-1v8h2v-8h-2zm4-3v11h2v-11h-2z" opacity=".2"/><path opacity=".2" fill="#fff" enable-background="new" d="M860 124v-3h2v3h-2zm0-7h-19v11h19v-2h4v-7h-4v-2zm-2 2v7h-15v-7h15zm-14 1v5h5v-5h-5z"/></g></svg>