<?xml version="1.0" encoding="utf-8"?>
<svg id="" viewBox="0 0 48 384" style="background-color:#ffffff00" version="1.1" 	xmlns="http://www.w3.org/2000/svg" xmlns:xlink="http://www.w3.org/1999/xlink" xml:space="preserve" x="0px" y="0px" width="48px" height="384px">

	<path id="MoveBlue" d="M 20.8154 371.4238 L 18.2422 368.8516 C 18.1191 368.7275 17.959 368.666 17.7861 368.666 C 17.6143 368.666 17.4668 368.7275 17.3311 368.8516 C 17.208 368.9746 17.1465 369.1348 17.1465 369.3066 L 17.1465 370.5869 L 13.293 370.5869 L 13.293 366.7344 L 14.5732 366.7344 C 14.7461 366.7344 14.8936 366.6719 15.0283 366.5488 C 15.1514 366.4258 15.2129 366.2656 15.2129 366.0938 C 15.2129 365.9209 15.1514 365.7734 15.0283 365.6377 L 12.4551 363.0645 C 12.332 362.9414 12.1719 362.8799 12 362.8799 C 11.8276 362.8799 11.6797 362.9414 11.5444 363.0645 L 8.9712 365.6377 C 8.8481 365.7607 8.7866 365.9209 8.7866 366.0938 C 8.7866 366.2656 8.8481 366.4141 8.9712 366.5488 C 9.0942 366.6719 9.2544 366.7344 9.4268 366.7344 L 10.707 366.7344 L 10.707 370.5869 L 6.8535 370.5869 L 6.8535 369.3066 C 6.8535 369.1348 6.792 368.9863 6.6689 368.8516 C 6.5459 368.7275 6.3857 368.666 6.2134 368.666 C 6.041 368.666 5.8936 368.7275 5.7578 368.8516 L 3.1846 371.4238 C 3.0615 371.5479 3 371.707 3 371.8799 C 3 372.0527 3.0615 372.2002 3.1846 372.3359 L 5.7578 374.9092 C 5.8809 375.0322 6.041 375.0938 6.2134 375.0938 C 6.3857 375.0938 6.5337 375.0322 6.6689 374.9092 C 6.792 374.7861 6.8535 374.626 6.8535 374.4531 L 6.8535 373.1729 L 10.707 373.1729 L 10.707 377.0264 L 9.4268 377.0264 C 9.2544 377.0264 9.1064 377.0879 8.9712 377.2109 C 8.8481 377.334 8.7866 377.4941 8.7866 377.667 C 8.7866 377.8389 8.8481 377.9863 8.9712 378.1221 L 11.5444 380.6953 C 11.6675 380.8184 11.8276 380.8799 12 380.8799 C 12.1719 380.8799 12.3203 380.8184 12.4551 380.6953 L 15.0283 378.1221 C 15.1514 377.999 15.2129 377.8389 15.2129 377.667 C 15.2129 377.4941 15.1514 377.3467 15.0283 377.2109 C 14.9053 377.0879 14.7461 377.0264 14.5732 377.0264 L 13.293 377.0264 L 13.293 373.1729 L 17.1465 373.1729 L 17.1465 374.4531 C 17.1465 374.626 17.208 374.7734 17.3311 374.9092 C 17.4541 375.0322 17.6143 375.0938 17.7861 375.0938 C 17.959 375.0938 18.1064 375.0322 18.2422 374.9092 L 20.8154 372.3359 C 20.9385 372.2129 21 372.0527 21 371.8799 C 21 371.707 20.9385 371.5605 20.8154 371.4238 Z" fill="#6a95c2"/>
	<path id="MoveWhite" d="M 44.8154 371.4238 L 42.2422 368.8516 C 42.1191 368.7275 41.959 368.666 41.7861 368.666 C 41.6143 368.666 41.4668 368.7275 41.3311 368.8516 C 41.208 368.9746 41.1465 369.1348 41.1465 369.3066 L 41.1465 370.5869 L 37.293 370.5869 L 37.293 366.7344 L 38.5732 366.7344 C 38.7461 366.7344 38.8936 366.6719 39.0283 366.5488 C 39.1514 366.4258 39.2129 366.2656 39.2129 366.0938 C 39.2129 365.9209 39.1514 365.7734 39.0283 365.6377 L 36.4551 363.0645 C 36.332 362.9414 36.1719 362.8799 36 362.8799 C 35.8271 362.8799 35.6797 362.9414 35.5439 363.0645 L 32.9717 365.6377 C 32.8477 365.7607 32.7861 365.9209 32.7861 366.0938 C 32.7861 366.2656 32.8477 366.4141 32.9717 366.5488 C 33.0938 366.6719 33.2549 366.7344 33.4268 366.7344 L 34.707 366.7344 L 34.707 370.5869 L 30.8535 370.5869 L 30.8535 369.3066 C 30.8535 369.1348 30.792 368.9863 30.6689 368.8516 C 30.5459 368.7275 30.3857 368.666 30.2139 368.666 C 30.041 368.666 29.8936 368.7275 29.7578 368.8516 L 27.1846 371.4238 C 27.0615 371.5479 27 371.707 27 371.8799 C 27 372.0527 27.0615 372.2002 27.1846 372.3359 L 29.7578 374.9092 C 29.8809 375.0322 30.041 375.0938 30.2139 375.0938 C 30.3857 375.0938 30.5342 375.0322 30.6689 374.9092 C 30.792 374.7861 30.8535 374.626 30.8535 374.4531 L 30.8535 373.1729 L 34.707 373.1729 L 34.707 377.0264 L 33.4268 377.0264 C 33.2549 377.0264 33.1064 377.0879 32.9717 377.2109 C 32.8477 377.334 32.7861 377.4941 32.7861 377.667 C 32.7861 377.8389 32.8477 377.9863 32.9717 378.1221 L 35.5439 380.6953 C 35.668 380.8184 35.8271 380.8799 36 380.8799 C 36.1719 380.8799 36.3203 380.8184 36.4551 380.6953 L 39.0283 378.1221 C 39.1514 377.999 39.2129 377.8389 39.2129 377.667 C 39.2129 377.4941 39.1514 377.3467 39.0283 377.2109 C 38.9053 377.0879 38.7461 377.0264 38.5732 377.0264 L 37.293 377.0264 L 37.293 373.1729 L 41.1465 373.1729 L 41.1465 374.4531 C 41.1465 374.626 41.208 374.7734 41.3311 374.9092 C 41.4541 375.0322 41.6143 375.0938 41.7861 375.0938 C 41.959 375.0938 42.1064 375.0322 42.2422 374.9092 L 44.8154 372.3359 C 44.9385 372.2129 45 372.0527 45 371.8799 C 45 371.707 44.9385 371.5605 44.8154 371.4238 Z" fill="#ffffff"/>
	
  <g id="ComputerBlue">
		<path d="M 5.7686 352.8057 L 18.2314 352.8057 C 18.738 352.8057 19.174 352.6063 19.5258 352.2223 C 19.891 351.8236 20.0602 351.3624 20.0602 350.8103 L 20.0602 341.9963 C 20.0602 341.4442 19.8776 340.9674 19.5258 340.5844 C 19.1597 340.1847 18.738 340 18.2314 340 L 5.7686 340 C 5.262 340 4.826 340.2003 4.4742 340.5844 C 4.1085 340.983 3.9398 341.4442 3.9398 341.9963 L 3.9398 350.8103 C 3.9398 351.3624 4.1228 351.8383 4.4742 352.2223 C 4.826 352.6063 5.262 352.8057 5.7686 352.8057 ZM 5.403 341.9963 C 5.403 341.8889 5.445 341.797 5.5153 341.7198 C 5.5856 341.6436 5.6702 341.5977 5.7686 341.5977 L 18.2314 341.5977 C 18.3298 341.5977 18.414 341.6436 18.4847 341.7198 C 18.5545 341.797 18.5975 341.8889 18.5975 341.9963 L 18.5975 350.8103 C 18.5975 350.9178 18.5545 351.0096 18.4847 351.0859 C 18.414 351.1631 18.3298 351.209 18.2314 351.209 L 5.7686 351.209 C 5.6702 351.209 5.5856 351.1631 5.5153 351.0859 C 5.445 351.0096 5.403 350.9178 5.403 350.8103 L 5.403 341.9963 Z" fill="#6a95c2"/>
		<path d="M 21.1711 353.604 L 2.8289 353.604 L 1 353.604 L 1 354.802 C 1 355.1401 1.1826 355.4166 1.5344 355.6463 C 1.9001 355.8769 2.3222 356 2.8289 356 L 21.1711 356 C 21.6778 356 22.1138 355.8769 22.4656 355.6463 C 22.8308 355.4166 23 355.1245 23 354.802 L 23 353.604 L 21.1711 353.604 ZM 12.914 354.802 L 11.0856 354.802 C 10.9589 354.802 10.903 354.7404 10.903 354.6027 C 10.903 354.4639 10.9589 354.4033 11.0856 354.4033 L 12.914 354.4033 C 13.0411 354.4033 13.0975 354.4639 13.0975 354.6027 C 13.0975 354.7404 13.0411 354.802 12.914 354.802 Z" fill="#6a95c2"/>
	</g>
	<g id="ComputerWhite">
		<path d="M 29.7686 352.8057 L 42.2314 352.8057 C 42.738 352.8057 43.174 352.6063 43.5258 352.2223 C 43.891 351.8236 44.0602 351.3624 44.0602 350.8103 L 44.0602 341.9963 C 44.0602 341.4442 43.8776 340.9674 43.5258 340.5844 C 43.1597 340.1847 42.738 340 42.2314 340 L 29.7686 340 C 29.262 340 28.826 340.2003 28.4742 340.5844 C 28.1081 340.983 27.9398 341.4442 27.9398 341.9963 L 27.9398 350.8103 C 27.9398 351.3624 28.1224 351.8383 28.4742 352.2223 C 28.826 352.6063 29.262 352.8057 29.7686 352.8057 ZM 29.4025 341.9963 C 29.4025 341.8889 29.4446 341.797 29.5153 341.7198 C 29.5851 341.6436 29.6702 341.5977 29.7686 341.5977 L 42.2314 341.5977 C 42.3298 341.5977 42.414 341.6436 42.4847 341.7198 C 42.5545 341.797 42.5975 341.8889 42.5975 341.9963 L 42.5975 350.8103 C 42.5975 350.9178 42.5545 351.0096 42.4847 351.0859 C 42.414 351.1631 42.3298 351.209 42.2314 351.209 L 29.7686 351.209 C 29.6702 351.209 29.5851 351.1631 29.5153 351.0859 C 29.4446 351.0096 29.4025 350.9178 29.4025 350.8103 L 29.4025 341.9963 Z" fill="#ffffff"/>
		<path d="M 45.1711 353.604 L 26.8289 353.604 L 25 353.604 L 25 354.802 C 25 355.1401 25.1826 355.4166 25.5344 355.6463 C 25.9001 355.8769 26.3222 356 26.8289 356 L 45.1711 356 C 45.6778 356 46.1138 355.8769 46.4656 355.6463 C 46.8308 355.4166 47 355.1245 47 354.802 L 47 353.604 L 45.1711 353.604 ZM 36.914 354.802 L 35.0851 354.802 C 34.9589 354.802 34.9025 354.7404 34.9025 354.6027 C 34.9025 354.4639 34.9589 354.4033 35.0851 354.4033 L 36.914 354.4033 C 37.0411 354.4033 37.0975 354.4639 37.0975 354.6027 C 37.0975 354.7404 37.0411 354.802 36.914 354.802 Z" fill="#ffffff"/>
	</g>
  
	<path d="M 26.6631 316.6484 C 26.209 317.0908 26 317.6025 26 318.2178 L 26 329.7822 C 26 330.3975 26.2266 330.9258 26.6631 331.3516 C 27.1172 331.7959 27.6406 332 28.2686 332 L 43.7314 332 C 44.3594 332 44.9004 331.7783 45.3369 331.3516 C 45.791 330.9092 46 330.3975 46 329.7822 L 46 318.2178 C 46 317.6025 45.7734 317.0742 45.3369 316.6484 C 44.8828 316.2041 44.3594 316 43.7314 316 L 28.2686 316 C 27.6406 316 27.0996 316.2217 26.6631 316.6484 ZM 44.8311 323.3691 C 45.0049 323.5391 45.0928 323.7617 45.0928 324 C 45.0928 324.2383 45.0049 324.4434 44.8311 324.6309 C 44.6563 324.8018 44.4297 324.8867 44.1846 324.8867 C 43.9404 324.8867 43.7314 324.8018 43.5391 324.6309 C 43.3643 324.4609 43.2598 324.2383 43.2598 324 C 43.2598 323.7617 43.3477 323.5566 43.5391 323.3691 C 43.7139 323.1982 43.9404 323.1133 44.1846 323.1133 C 44.4297 323.1133 44.6563 323.1982 44.8311 323.3691 ZM 41.916 317.7734 C 42.0381 317.7734 42.1436 317.8252 42.2305 317.9102 C 42.3174 317.9951 42.3701 318.0977 42.3701 318.2178 L 42.3701 329.7822 C 42.3701 329.9023 42.3174 330.0049 42.2305 330.0898 C 42.1436 330.1748 42.0381 330.2266 41.916 330.2266 L 28.2686 330.2266 C 28.1465 330.2266 28.042 330.1748 27.9551 330.0898 C 27.8672 330.0049 27.8154 329.9023 27.8154 329.7822 L 27.8154 318.2178 C 27.8154 318.0977 27.8672 317.9951 27.9551 317.9102 C 28.042 317.8252 28.1465 317.7734 28.2686 317.7734 L 41.916 317.7734 Z" fill="#ffffff"/>
	<g id="TabletLandscapeBlue">
		<path d="M 2.6631 316.6484 C 2.209 317.0918 2 317.6035 2 318.2178 L 2 329.7822 C 2 330.3965 2.2266 330.9258 2.6631 331.3516 C 3.1172 331.7949 3.6406 332 4.2686 332 L 19.7314 332 C 20.3594 332 20.9004 331.7783 21.3369 331.3516 C 21.791 330.9082 22 330.3965 22 329.7822 L 22 318.2178 C 22 317.6035 21.7734 317.0742 21.3369 316.6484 C 20.8828 316.2051 20.3594 316 19.7314 316 L 4.2686 316 C 3.6406 316 3.0996 316.2217 2.6631 316.6484 ZM 20.8311 323.3691 C 21.0049 323.5391 21.0928 323.7617 21.0928 324 C 21.0928 324.2383 21.0049 324.4434 20.8311 324.6309 C 20.6563 324.8018 20.4297 324.8867 20.1846 324.8867 C 19.9404 324.8867 19.7314 324.8018 19.5391 324.6309 C 19.3643 324.4609 19.2598 324.2383 19.2598 324 C 19.2598 323.7617 19.3477 323.5566 19.5391 323.3691 C 19.7139 323.1982 19.9404 323.1133 20.1846 323.1133 C 20.4297 323.1133 20.6563 323.1982 20.8311 323.3691 ZM 17.916 317.7734 C 18.0381 317.7734 18.1436 317.8252 18.2305 317.9102 C 18.3174 317.9961 18.3701 318.0977 18.3701 318.2178 L 18.3701 329.7822 C 18.3701 329.9023 18.3174 330.0039 18.2305 330.0898 C 18.1436 330.1748 18.0381 330.2266 17.916 330.2266 L 4.2686 330.2266 C 4.1465 330.2266 4.042 330.1748 3.9551 330.0898 C 3.8672 330.0039 3.8154 329.9023 3.8154 329.7822 L 3.8154 318.2178 C 3.8154 318.0977 3.8672 317.9961 3.9551 317.9102 C 4.042 317.8252 4.1465 317.7734 4.2686 317.7734 L 17.916 317.7734 Z" fill="#6a95c2"/>
	</g>
  
	<path d="M 43.5215 290.6631 C 43.0684 290.209 42.5449 290 41.916 290 L 30.084 290 C 29.4551 290 28.9141 290.2266 28.4785 290.6631 C 28.0244 291.1172 27.8154 291.6406 27.8154 292.2686 L 27.8154 307.7314 C 27.8154 308.3594 28.042 308.9004 28.4785 309.3369 C 28.9316 309.791 29.4551 310 30.084 310 L 41.916 310 C 42.5449 310 43.0859 309.7734 43.5215 309.3369 C 43.9756 308.8828 44.1846 308.3594 44.1846 307.7314 L 44.1846 292.2686 C 44.1846 291.6406 43.958 291.0996 43.5215 290.6631 ZM 36.6455 308.8311 C 36.4717 309.0049 36.2441 309.0928 36 309.0928 C 35.7559 309.0928 35.5459 309.0049 35.3545 308.8311 C 35.1797 308.6563 35.0928 308.4297 35.0928 308.1846 C 35.0928 307.9404 35.1797 307.7314 35.3545 307.5391 C 35.5283 307.3643 35.7559 307.2598 36 307.2598 C 36.2441 307.2598 36.4541 307.3477 36.6455 307.5391 C 36.8203 307.7139 36.9072 307.9404 36.9072 308.1846 C 36.9072 308.4297 36.8203 308.6563 36.6455 308.8311 ZM 42.3701 305.916 C 42.3701 306.0381 42.3174 306.1436 42.2305 306.2305 C 42.1436 306.3174 42.0381 306.3701 41.916 306.3701 L 30.084 306.3701 C 29.9619 306.3701 29.8564 306.3174 29.7695 306.2305 C 29.6826 306.1436 29.6299 306.0381 29.6299 305.916 L 29.6299 292.2686 C 29.6299 292.1465 29.6826 292.042 29.7695 291.9551 C 29.8564 291.8672 29.9619 291.8154 30.084 291.8154 L 41.916 291.8154 C 42.0381 291.8154 42.1436 291.8672 42.2305 291.9551 C 42.3174 292.042 42.3701 292.1465 42.3701 292.2686 L 42.3701 305.916 Z" fill="#ffffff"/>
	<g id="TabletBlue">
		<path d="M 19.522 290.6631 C 19.0679 290.209 18.5444 290 17.916 290 L 6.084 290 C 5.4556 290 4.9146 290.2266 4.478 290.6631 C 4.0244 291.1172 3.8149 291.6406 3.8149 292.2686 L 3.8149 307.7314 C 3.8149 308.3594 4.042 308.9004 4.478 309.3369 C 4.9321 309.791 5.4556 310 6.084 310 L 17.916 310 C 18.5444 310 19.0854 309.7734 19.522 309.3369 C 19.9756 308.8828 20.1851 308.3594 20.1851 307.7314 L 20.1851 292.2686 C 20.1851 291.6406 19.958 291.0996 19.522 290.6631 ZM 12.6455 308.8311 C 12.4712 309.0049 12.2441 309.0928 12 309.0928 C 11.7559 309.0928 11.5464 309.0049 11.3545 308.8311 C 11.1797 308.6563 11.0923 308.4297 11.0923 308.1846 C 11.0923 307.9404 11.1797 307.7314 11.3545 307.5391 C 11.5288 307.3643 11.7559 307.2598 12 307.2598 C 12.2441 307.2598 12.4536 307.3477 12.6455 307.5391 C 12.8203 307.7139 12.9077 307.9404 12.9077 308.1846 C 12.9077 308.4297 12.8203 308.6563 12.6455 308.8311 ZM 18.3701 305.916 C 18.3701 306.0381 18.3174 306.1436 18.2305 306.2305 C 18.1431 306.3174 18.0386 306.3701 17.916 306.3701 L 6.084 306.3701 C 5.9614 306.3701 5.8569 306.3174 5.7695 306.2305 C 5.6826 306.1436 5.6299 306.0381 5.6299 305.916 L 5.6299 292.2686 C 5.6299 292.1465 5.6826 292.042 5.7695 291.9551 C 5.8569 291.8672 5.9614 291.8154 6.084 291.8154 L 17.916 291.8154 C 18.0386 291.8154 18.1431 291.8672 18.2305 291.9551 C 18.3174 292.042 18.3701 292.1465 18.3701 292.2686 L 18.3701 305.916 Z" fill="#6a95c2"/>
	</g>
  
	<g id="PhoneWhite">
		<path d="M 39.5576 269.6719 C 39.2891 269.3896 38.9814 269.2559 38.623 269.2559 L 33.2861 269.2559 C 32.9277 269.2559 32.6074 269.3896 32.3516 269.6719 C 32.083 269.9541 31.9551 270.2764 31.9551 270.6533 L 31.9551 281.8584 C 31.9551 282.2344 32.083 282.5703 32.3516 282.8389 C 32.6201 283.1211 32.9277 283.2559 33.2861 283.2559 L 38.623 283.2559 C 38.9814 283.2559 39.3018 283.1211 39.5576 282.8389 C 39.8271 282.5566 39.9551 282.2344 39.9551 281.8584 L 39.9551 270.6533 C 39.9551 270.2764 39.8271 269.9404 39.5576 269.6719 ZM 35.1162 270.6533 L 36.7803 270.6533 C 36.8955 270.6533 36.9463 270.707 36.9463 270.8271 C 36.9463 270.9482 36.8955 271.002 36.7803 271.002 L 35.1162 271.002 C 35.001 271.002 34.9502 270.9482 34.9502 270.8271 C 34.9502 270.707 35.001 270.6533 35.1162 270.6533 ZM 36.5371 282.4766 C 36.3711 282.6514 36.1787 282.7314 35.9482 282.7314 C 35.7178 282.7314 35.5264 282.6514 35.3594 282.4766 C 35.1934 282.3018 35.1162 282.1006 35.1162 281.8584 C 35.1162 281.6162 35.1934 281.415 35.3594 281.2402 C 35.5264 281.0654 35.7178 280.9854 35.9482 280.9854 C 36.1787 280.9854 36.3711 281.0654 36.5371 281.2402 C 36.7031 281.415 36.7803 281.6162 36.7803 281.8584 C 36.7803 282.1006 36.7031 282.3018 36.5371 282.4766 ZM 38.9561 280.1113 C 38.9561 280.2061 38.918 280.2861 38.8535 280.3535 C 38.79 280.4209 38.7129 280.4609 38.623 280.4609 L 33.2861 280.4609 C 33.1963 280.4609 33.1191 280.4209 33.0557 280.3535 C 32.9912 280.2861 32.9531 280.2061 32.9531 280.1113 L 32.9531 272.3994 C 32.9531 272.3057 32.9912 272.2246 33.0557 272.1572 C 33.1191 272.0908 33.1963 272.0508 33.2861 272.0508 L 38.623 272.0508 C 38.7129 272.0508 38.79 272.0908 38.8535 272.1572 C 38.918 272.2246 38.9561 272.3057 38.9561 272.3994 L 38.9561 280.1113 L 38.9561 280.1113 Z" fill="#ffffff"/>
	</g>
	<g id="PhoneBlue">
		<path d="M 15.5581 269.6719 C 15.2891 269.3896 14.9819 269.2559 14.6235 269.2559 L 9.2856 269.2559 C 8.9272 269.2559 8.6074 269.3896 8.3516 269.6719 C 8.0825 269.9541 7.9546 270.2764 7.9546 270.6533 L 7.9546 281.8584 C 7.9546 282.2344 8.0825 282.5703 8.3516 282.8389 C 8.6201 283.1211 8.9272 283.2559 9.2856 283.2559 L 14.6235 283.2559 C 14.9819 283.2559 15.3018 283.1211 15.5581 282.8389 C 15.8267 282.5566 15.9546 282.2344 15.9546 281.8584 L 15.9546 270.6533 C 15.9546 270.2764 15.8267 269.9404 15.5581 269.6719 ZM 11.1162 270.6533 L 12.7803 270.6533 C 12.8955 270.6533 12.9468 270.707 12.9468 270.8271 C 12.9468 270.9482 12.8955 271.002 12.7803 271.002 L 11.1162 271.002 C 11.001 271.002 10.9497 270.9482 10.9497 270.8271 C 10.9497 270.707 11.001 270.6533 11.1162 270.6533 ZM 12.5371 282.4766 C 12.3706 282.6514 12.1787 282.7314 11.9482 282.7314 C 11.7178 282.7314 11.5259 282.6514 11.3594 282.4766 C 11.1929 282.3018 11.1162 282.1006 11.1162 281.8584 C 11.1162 281.6162 11.1929 281.415 11.3594 281.2402 C 11.5259 281.0654 11.7178 280.9854 11.9482 280.9854 C 12.1787 280.9854 12.3706 281.0654 12.5371 281.2402 C 12.7036 281.415 12.7803 281.6162 12.7803 281.8584 C 12.7803 282.1006 12.7036 282.3018 12.5371 282.4766 ZM 14.9565 280.1113 C 14.9565 280.2061 14.918 280.2861 14.854 280.3535 C 14.79 280.4209 14.7129 280.4609 14.6235 280.4609 L 9.2856 280.4609 C 9.1963 280.4609 9.1196 280.4209 9.0557 280.3535 C 8.9917 280.2861 8.9531 280.2061 8.9531 280.1113 L 8.9531 272.3994 C 8.9531 272.3057 8.9917 272.2246 9.0557 272.1572 C 9.1196 272.0908 9.1963 272.0508 9.2856 272.0508 L 14.6235 272.0508 C 14.7129 272.0508 14.79 272.0908 14.854 272.1572 C 14.918 272.2246 14.9565 272.3057 14.9565 272.3994 L 14.9565 280.1113 L 14.9565 280.1113 Z" fill="#6a95c2"/>
	</g>
  
	<g id="MonitorWhite">
		<path d="M 45.8594 243.5049 C 45.5146 243.1592 45.1182 243 44.6406 243 L 27.3721 243 C 26.8945 243 26.4844 243.1729 26.1533 243.5049 C 25.8086 243.8496 25.6504 244.248 25.6504 244.7256 L 25.6504 256.4863 C 25.6504 256.9648 25.8223 257.376 26.1533 257.708 C 26.498 258.0527 26.8945 258.2119 27.3721 258.2119 L 33.2383 258.2119 C 33.2383 258.4912 33.1855 258.7695 33.0664 259.0615 C 32.9473 259.3535 32.8408 259.6064 32.7217 259.8184 C 32.6025 260.0313 32.5498 260.1904 32.5498 260.2969 C 32.5498 260.4824 32.6162 260.6416 32.748 260.7881 C 32.8809 260.9199 33.0527 261 33.2383 261 L 38.7607 261 C 38.9463 261 39.1055 260.9336 39.251 260.7881 C 39.3828 260.6553 39.4492 260.4824 39.4492 260.2969 C 39.4492 260.2031 39.3965 260.0439 39.2773 259.832 C 39.1582 259.6191 39.0518 259.3535 38.9326 259.0615 C 38.8135 258.7695 38.7607 258.4912 38.7607 258.2256 L 44.6279 258.2256 C 45.1045 258.2256 45.5146 258.0527 45.8457 257.7217 C 46.1904 257.376 46.3496 256.9775 46.3496 256.5 L 46.3496 244.7393 C 46.3623 244.2607 46.1904 243.8496 45.8594 243.5049 ZM 44.9854 253.7256 C 44.9854 253.8184 44.9453 253.8984 44.8789 253.9648 C 44.8135 254.0313 44.7334 254.0703 44.6406 254.0703 L 27.3721 254.0703 C 27.2793 254.0703 27.1992 254.0313 27.1328 253.9648 C 27.0674 253.8984 27.0273 253.8184 27.0273 253.7256 L 27.0273 244.7256 C 27.0273 244.6328 27.0674 244.5527 27.1328 244.4863 C 27.1992 244.4199 27.2793 244.3809 27.3721 244.3809 L 44.6406 244.3809 C 44.7334 244.3809 44.8135 244.4199 44.8789 244.4863 C 44.9453 244.5527 44.9854 244.6328 44.9854 244.7256 L 44.9854 253.7256 L 44.9854 253.7256 Z" fill="#ffffff"/>
	</g>
	<g id="MonitorBlue">
		<path d="M 21.8594 243.5049 C 21.5151 243.1592 21.1177 243 20.6411 243 L 3.3716 243 C 2.895 243 2.4844 243.1729 2.1533 243.5049 C 1.8091 243.8496 1.6499 244.248 1.6499 244.7256 L 1.6499 256.4863 C 1.6499 256.9648 1.8223 257.376 2.1533 257.708 C 2.4976 258.0527 2.895 258.2119 3.3716 258.2119 L 9.2383 258.2119 C 9.2383 258.4912 9.1855 258.7695 9.0664 259.0615 C 8.9473 259.3535 8.8413 259.6064 8.7217 259.8184 C 8.6025 260.0313 8.5498 260.1904 8.5498 260.2969 C 8.5498 260.4824 8.6162 260.6416 8.7485 260.7881 C 8.8809 260.9199 9.0532 261 9.2383 261 L 14.7607 261 C 14.9463 261 15.105 260.9336 15.251 260.7881 C 15.3833 260.6553 15.4497 260.4824 15.4497 260.2969 C 15.4497 260.2031 15.3965 260.0439 15.2773 259.832 C 15.1582 259.6191 15.0522 259.3535 14.9331 259.0615 C 14.814 258.7695 14.7607 258.4912 14.7607 258.2256 L 20.6279 258.2256 C 21.1045 258.2256 21.5151 258.0527 21.8462 257.7217 C 22.1904 257.376 22.3491 256.9775 22.3491 256.5 L 22.3491 244.7393 C 22.3623 244.2607 22.1904 243.8496 21.8594 243.5049 ZM 20.9854 253.7256 C 20.9854 253.8184 20.9453 253.8984 20.8794 253.9648 C 20.813 254.0313 20.7334 254.0703 20.6411 254.0703 L 3.3716 254.0703 C 3.2788 254.0703 3.1997 254.0313 3.1333 253.9648 C 3.0669 253.8984 3.0273 253.8184 3.0273 253.7256 L 3.0273 244.7256 C 3.0273 244.6328 3.0669 244.5527 3.1333 244.4863 C 3.1997 244.4199 3.2788 244.3809 3.3716 244.3809 L 20.6411 244.3809 C 20.7334 244.3809 20.813 244.4199 20.8794 244.4863 C 20.9453 244.5527 20.9854 244.6328 20.9854 244.7256 L 20.9854 253.7256 L 20.9854 253.7256 Z" fill="#6a95c2"/>
	</g>
  
	<path d="M 36 219.6572 L 26 229.5 L 29 229.5 L 29 236.5 L 34 236.5 L 34 231.5 L 38 231.5 L 38 236.5 L 43 236.5 L 43 229.5 L 46 229.5 L 43 226.5498 L 43 219.5 L 41 219.5 L 41 224.5801 L 36 219.6572 Z" fill="#ffffff"/>
	<path d="M 12 219.6572 L 2 229.5 L 5 229.5 L 5 236.5 L 10 236.5 L 10 231.5 L 14 231.5 L 14 236.5 L 19 236.5 L 19 229.5 L 22 229.5 L 19 226.5498 L 19 219.5 L 17 219.5 L 17 224.5801 L 12 219.6572 Z" fill="#6a95c2"/>
	
  <path id="SearchWhite" d="M 43.8174 202.5137 C 43.8174 198.541 40.3125 194 34.7627 194 C 29.7969 194 26 197.6895 26 202.5137 C 26 206.4873 29.2129 211.3115 34.7627 211.3115 C 36.457 211.3115 38.3008 210.7285 39.8799 209.6602 L 44.3477 214 L 46 212.3945 L 41.627 208.1445 C 42.9434 206.6865 43.8174 204.7754 43.8174 202.5137 ZM 42.0654 202.5137 C 42.0654 206.4873 38.5596 209.6094 34.7627 209.6094 C 30.0889 209.6094 27.7529 205.9199 27.7529 202.5137 C 27.7529 198.541 30.6738 195.7031 34.7627 195.7031 C 38.8516 195.7031 42.0654 198.541 42.0654 202.5137 Z" fill="#ffffff"/>
	<path id="SearchBlue" d="M 19.8174 202.5137 C 19.8174 198.541 16.3125 194 10.7627 194 C 5.7974 194 2 197.6895 2 202.5137 C 2 206.4873 5.2129 211.3115 10.7627 211.3115 C 12.4565 211.3115 14.3008 210.7285 15.8804 209.6602 L 20.3477 214 L 22 212.3945 L 17.627 208.1445 C 18.9429 206.6865 19.8174 204.7754 19.8174 202.5137 ZM 18.0649 202.5137 C 18.0649 206.4873 14.5601 209.6094 10.7627 209.6094 C 6.0894 209.6094 3.7524 205.9199 3.7524 202.5137 C 3.7524 198.541 6.6733 195.7031 10.7627 195.7031 C 14.8521 195.7031 18.0649 198.541 18.0649 202.5137 Z" fill="#6a95c2"/>
	
  <g id="TogglerWhite">
		<path d="M 26.4775 170.5 L 45.4814 170.5 C 46.0322 170.5 46.4795 170.9473 46.4795 171.498 L 46.4795 172.4961 C 46.4795 173.0469 46.0322 173.4941 45.4814 173.4941 L 26.4775 173.4941 C 25.9268 173.4941 25.4795 173.0469 25.4795 172.4961 L 25.4795 171.498 C 25.4795 170.9473 25.9268 170.5 26.4775 170.5 Z" fill="#ffffff"/>
		<path d="M 26.4775 178.4844 L 45.4814 178.4844 C 46.0322 178.4844 46.4795 178.9316 46.4795 179.4824 L 46.4795 180.4805 C 46.4795 181.0313 46.0322 181.4785 45.4814 181.4785 L 26.4775 181.4785 C 25.9268 181.4785 25.4795 181.0313 25.4795 180.4805 L 25.4795 179.4824 C 25.4795 178.9316 25.9268 178.4844 26.4775 178.4844 Z" fill="#ffffff"/>
		<path d="M 26.4775 186.4688 L 45.4814 186.4688 C 46.0322 186.4688 46.4795 186.916 46.4795 187.4668 L 46.4795 188.4648 C 46.4795 189.0156 46.0322 189.4629 45.4814 189.4629 L 26.4775 189.4629 C 25.9268 189.4629 25.4795 189.0156 25.4795 188.4648 L 25.4795 187.4668 C 25.4795 186.916 25.9268 186.4688 26.4775 186.4688 Z" fill="#ffffff"/>
	</g>
	<g id="TogglerBlue">
		<path d="M 2.4775 170.5 L 21.4814 170.5 C 22.0327 170.5 22.4795 170.9473 22.4795 171.498 L 22.4795 172.4961 C 22.4795 173.0469 22.0327 173.4941 21.4814 173.4941 L 2.4775 173.4941 C 1.9263 173.4941 1.4795 173.0469 1.4795 172.4961 L 1.4795 171.498 C 1.4795 170.9473 1.9263 170.5 2.4775 170.5 Z" fill="#6a95c2"/>
		<path d="M 2.4775 178.4844 L 21.4814 178.4844 C 22.0327 178.4844 22.4795 178.9316 22.4795 179.4824 L 22.4795 180.4805 C 22.4795 181.0313 22.0327 181.4785 21.4814 181.4785 L 2.4775 181.4785 C 1.9263 181.4785 1.4795 181.0313 1.4795 180.4805 L 1.4795 179.4824 C 1.4795 178.9316 1.9263 178.4844 2.4775 178.4844 Z" fill="#6a95c2"/>
		<path d="M 2.4775 186.4688 L 21.4814 186.4688 C 22.0327 186.4688 22.4795 186.916 22.4795 187.4668 L 22.4795 188.4648 C 22.4795 189.0156 22.0327 189.4629 21.4814 189.4629 L 2.4775 189.4629 C 1.9263 189.4629 1.4795 189.0156 1.4795 188.4648 L 1.4795 187.4668 C 1.4795 186.916 1.9263 186.4688 2.4775 186.4688 Z" fill="#6a95c2"/>
	</g>
  
	<g id="ShareWhite">
		<path d="M 42.708 163.3213 C 42.708 163.7539 42.3633 164.1055 41.9395 164.1055 L 27.1855 164.1055 C 26.7617 164.1055 26.417 163.7539 26.417 163.3213 L 26.417 152.1729 C 26.417 151.7402 26.7617 151.3877 27.1855 151.3877 L 30.6709 151.3877 L 31.6504 149.4316 L 26.8066 149.4316 C 25.5332 149.4316 24.5 150.4863 24.5 151.7861 L 24.5 163.708 C 24.5 165.0078 25.5332 166.0625 26.8066 166.0625 L 42.3184 166.0625 C 43.5918 166.0625 44.625 165.0078 44.625 163.708 L 44.625 157.6982 L 42.708 159.3115 L 42.708 163.3213 ZM 40.1621 145.9844 C 39.9561 146.0781 39.833 146.3008 39.833 146.5469 L 39.833 150.0342 C 32.8994 150.0342 29.1787 153.0752 29.1787 161.709 C 29.1787 156.2148 32.7686 154.5791 39.833 154.5791 L 39.833 158.001 C 39.833 158.248 39.9561 158.4697 40.1621 158.5645 C 40.2314 158.5947 40.2705 158.6113 40.3428 158.6113 C 40.4854 158.6113 40.627 158.5498 40.7314 158.4316 L 47.3389 152.7188 C 47.5537 152.4814 47.5537 152.0928 47.3389 151.8564 L 40.7314 146.1162 C 40.5742 145.9424 40.3682 145.8887 40.1621 145.9844 Z" fill="#ffffff"/>
	</g>
	<g id="ShareBlue">
		<path d="M 18.7085 163.3213 C 18.7085 163.7539 18.3638 164.1055 17.9395 164.1055 L 3.1855 164.1055 C 2.7612 164.1055 2.4165 163.7539 2.4165 163.3213 L 2.4165 152.1729 C 2.4165 151.7402 2.7612 151.3877 3.1855 151.3877 L 6.6704 151.3877 L 7.6504 149.4316 L 2.8066 149.4316 C 1.5332 149.4316 0.5 150.4863 0.5 151.7861 L 0.5 163.708 C 0.5 165.0078 1.5332 166.0625 2.8066 166.0625 L 18.3184 166.0625 C 19.5918 166.0625 20.625 165.0078 20.625 163.708 L 20.625 157.6982 L 18.7085 159.3115 L 18.7085 163.3213 ZM 16.1626 145.9844 C 15.9561 146.0781 15.8335 146.3008 15.8335 146.5469 L 15.8335 150.0342 C 8.8994 150.0342 5.1787 153.0752 5.1787 161.709 C 5.1787 156.2148 8.7681 154.5791 15.8335 154.5791 L 15.8335 158.001 C 15.8335 158.248 15.9561 158.4697 16.1626 158.5645 C 16.2314 158.5947 16.2705 158.6113 16.3423 158.6113 C 16.4858 158.6113 16.6265 158.5498 16.7319 158.4316 L 23.3389 152.7188 C 23.5537 152.4814 23.5537 152.0928 23.3389 151.8564 L 16.7319 146.1162 C 16.5737 145.9424 16.3682 145.8887 16.1626 145.9844 Z" fill="#6a95c2"/>
	</g>
  
	<g id="IndigoLogoWhite">
		<path d="M 45.7383 128.2158 L 43.6426 125.3594 C 43.4072 125.1094 43.0127 125.1221 42.7598 125.3691 L 40.6416 128.3398 C 40.3955 128.584 40.3252 129.1025 40.6475 129.1025 L 41.4541 129.1025 L 41.4541 138.6523 C 41.4541 138.7178 41.4844 139.6953 41.3242 139.6953 C 39.7549 135.2764 38.6641 127.2842 36.6748 127.2842 L 36.5078 127.2842 L 32.6992 127.2842 L 32.5273 127.2842 C 31.7314 127.2842 30.5459 128.0615 30.5459 130.9277 L 30.5459 138.5703 C 30.5459 139.8398 30.6563 141.3389 30.0811 141.3389 C 29.6563 141.3389 29.6367 139.8418 29.6367 138.5703 L 29.6367 127.2842 L 27.9297 127.2842 C 26.9658 127.2842 26 128.0615 26 129.0176 L 26 138.5703 C 26 141.4844 26.9365 142.7383 28.8662 142.7383 L 31.7314 142.7383 C 33.6533 142.7383 34.1816 141.4355 34.1816 138.5703 L 34.1816 130.9277 C 34.1816 130.6025 34.2188 129.7344 34.417 129.7344 C 36.0283 134.041 37.2334 142.7383 39.376 142.7383 C 39.376 142.7383 39.375 142.7383 39.374 142.7383 L 39.3789 142.7383 L 43.1953 142.7383 C 43.1953 142.7383 43.2988 142.7402 43.2754 142.7383 C 44.2002 142.6807 45.0908 141.4482 45.0908 138.6523 L 45.0908 129.1025 L 45.7422 129.1025 C 46.1865 129.1025 45.9697 128.4658 45.7383 128.2158 Z" fill="#ffffff"/>
		<path d="M 31.4131 123.4756 C 31.4131 122.2529 30.2012 121.2617 28.707 121.2617 C 27.2119 121.2617 26 122.2529 26 123.4756 L 26 126.6748 C 26 126.6748 26.1631 125.6895 28.0693 125.6895 C 30.5107 125.6895 31.4131 124.6982 31.4131 123.4756 Z" fill="#ffffff"/>
	</g>
	<g id="IndigoLogoBlue">
		<path d="M 21.7383 128.2158 L 19.6431 125.3594 C 19.4072 125.1094 19.0127 125.1221 18.7598 125.3691 L 16.6411 128.3398 C 16.395 128.584 16.3252 129.1025 16.6475 129.1025 L 17.4546 129.1025 L 17.4546 138.6523 C 17.4546 138.7178 17.4844 139.6953 17.3242 139.6953 C 15.7549 135.2764 14.6636 127.2842 12.6753 127.2842 L 12.5083 127.2842 L 8.6992 127.2842 L 8.5278 127.2842 C 7.7319 127.2842 6.5454 128.0615 6.5454 130.9277 L 6.5454 138.5703 C 6.5454 139.8398 6.6563 141.3389 6.0815 141.3389 C 5.6563 141.3389 5.6362 139.8418 5.6362 138.5703 L 5.6362 127.2842 L 3.9297 127.2842 C 2.9658 127.2842 2 128.0615 2 129.0176 L 2 138.5703 C 2 141.4844 2.936 142.7383 4.8657 142.7383 L 7.7319 142.7383 C 9.6528 142.7383 10.1816 141.4355 10.1816 138.5703 L 10.1816 130.9277 C 10.1816 130.6025 10.2188 129.7344 10.4165 129.7344 C 12.0283 134.041 13.2339 142.7383 15.376 142.7383 C 15.3755 142.7383 15.3745 142.7383 15.374 142.7383 L 15.3784 142.7383 L 19.1953 142.7383 C 19.1953 142.7383 19.2988 142.7402 19.2749 142.7383 C 20.2002 142.6807 21.0908 141.4482 21.0908 138.6523 L 21.0908 129.1025 L 21.7427 129.1025 C 22.186 129.1025 21.9697 128.4658 21.7383 128.2158 Z" fill="#6a95c2"/>
		<path d="M 7.4131 123.4756 C 7.4131 122.2529 6.2012 121.2617 4.7065 121.2617 C 3.2119 121.2617 2 122.2529 2 123.4756 L 2 126.6748 C 2 126.6748 2.1636 125.6895 4.0698 125.6895 C 6.5112 125.6895 7.4131 124.6982 7.4131 123.4756 Z" fill="#6a95c2"/>
	</g>
  
	<g id="ArrowWhite">
		<g>
			<path d="M 34.5 105.5 L 38.0459 118.2275 L 41 115.0454 L 45.1367 119.5 L 47.5 116.9546 L 43.3633 112.5 L 46.3184 109.3184 L 34.5 105.5 Z" fill="#ffffff"/>
		</g>
		<path d="M 36.5 96.5 L 37.5 96.5 L 37.5 102.5 L 36.5 102.5 L 36.5 96.5 Z" fill="#ffffff"/>
		<path d="M 24.5 108.5 L 30.5 108.5 L 30.5 109.5 L 24.5 109.5 L 24.5 108.5 Z" fill="#ffffff"/>
		<path d="M 29.1006 100.3936 L 33.3428 104.6357 L 32.6357 105.3433 L 28.3936 101.1006 L 29.1006 100.3936 Z" fill="#ffffff"/>
		<path d="M 44.6357 100.3936 L 40.3936 104.6357 L 41.1006 105.3433 L 45.3428 101.1006 L 44.6357 100.3936 Z" fill="#ffffff"/>
		<path d="M 29.1006 117.3433 L 33.3428 113.1006 L 32.6357 112.3936 L 28.3936 116.6362 L 29.1006 117.3433 Z" fill="#ffffff"/>
	</g>
	<g id="ArrowBlue">
		<g>
			<path d="M 10.5 105.5 L 14.0454 118.2275 L 17 115.0454 L 21.1362 119.5 L 23.5 116.9546 L 19.3638 112.5 L 22.3184 109.3184 L 10.5 105.5 Z" fill="#6a95c2"/>
		</g>
		<path d="M 12.5 96.5 L 13.5 96.5 L 13.5 102.5 L 12.5 102.5 L 12.5 96.5 Z" fill="#6a95c2"/>
		<path d="M 0.5 108.5 L 6.5 108.5 L 6.5 109.5 L 0.5 109.5 L 0.5 108.5 Z" fill="#6a95c2"/>
		<path d="M 5.1006 100.3936 L 9.3433 104.6357 L 8.6362 105.3433 L 4.3936 101.1006 L 5.1006 100.3936 Z" fill="#6a95c2"/>
		<path d="M 20.6362 100.3936 L 16.3936 104.6357 L 17.1006 105.3433 L 21.3433 101.1006 L 20.6362 100.3936 Z" fill="#6a95c2"/>
		<path d="M 5.1006 117.3433 L 9.3433 113.1006 L 8.6362 112.3936 L 4.3936 116.6362 L 5.1006 117.3433 Z" fill="#6a95c2"/>
	</g>
  
	<g id="CloseWhite">
		<path d="M 43.9541 90.0786 L 42.0449 91.9971 C 41.6953 92.3501 41.124 92.3501 40.7725 91.9971 L 36.001 87.2012 L 31.2285 91.9971 C 30.8779 92.3501 30.3066 92.3501 29.957 91.9951 L 28.0459 90.0786 C 27.6963 89.7256 27.6963 89.1533 28.0459 88.7983 L 32.8184 84.0005 L 28.0469 79.2041 C 27.6973 78.8501 27.6973 78.2744 28.0469 77.9238 L 29.957 76.0044 C 30.3066 75.6494 30.8789 75.6494 31.2285 76.0044 L 36 80.8022 L 40.7725 76.0044 C 41.124 75.6494 41.6953 75.6494 42.043 76.0044 L 43.9531 77.9209 C 44.3037 78.2744 44.3037 78.8501 43.9541 79.2041 L 39.1826 84.0005 L 43.9541 88.7983 C 44.3037 89.1533 44.3037 89.7256 43.9541 90.0786 Z" fill="#ffffff"/>
	</g>
	<g id="CloseBlue">
		<path d="M 19.9541 90.0786 L 18.0444 91.9971 C 17.6953 92.3501 17.124 92.3501 16.7725 91.9971 L 12.001 87.2012 L 7.2285 91.9971 C 6.8784 92.3501 6.3062 92.3501 5.9565 91.9951 L 4.0459 90.0786 C 3.6963 89.7256 3.6963 89.1533 4.0459 88.7983 L 8.8179 84.0005 L 4.0469 79.2041 C 3.6978 78.8501 3.6978 78.2744 4.0469 77.9238 L 5.9565 76.0044 C 6.3062 75.6494 6.8794 75.6494 7.2285 76.0044 L 12 80.8022 L 16.772 76.0044 C 17.124 75.6494 17.6953 75.6494 18.043 76.0044 L 19.9531 77.9209 C 20.3037 78.2744 20.3037 78.8501 19.9541 79.2041 L 15.1831 84.0005 L 19.9541 88.7983 C 20.3037 89.1533 20.3037 89.7256 19.9541 90.0786 Z" fill="#6a95c2"/>
	</g>
  
	<g id="PencilWhite">
		<path d="M 33.1797 66.0493 L 29.0439 61.8945 C 28.8506 61.7007 28.5703 61.6221 28.3057 61.6919 C 28.041 61.7593 27.832 61.9624 27.7549 62.2251 L 25.1338 69.0137 C 25.0547 69.2861 25.1289 69.5796 25.3291 69.7808 C 25.4766 69.9282 25.8154 70.022 26.0928 69.9771 L 32.8496 67.3433 C 33.1123 67.2656 33.3145 67.0557 33.3818 66.7905 C 33.4492 66.5244 33.3721 66.2432 33.1797 66.0493 Z" fill="#ffffff"/>
		<g>
			<path d="M 39.6768 50.4106 L 44.6133 55.3682 L 33.9961 66.0322 L 29.0605 61.0747 L 39.6768 50.4106 L 39.6768 50.4106 ZM 39.6777 48.2798 C 39.4063 48.2798 39.1348 48.3833 38.9277 48.5903 L 27.249 60.3218 C 26.8359 60.7368 26.8359 61.4141 27.249 61.8276 L 33.2461 67.8525 C 33.4531 68.0605 33.7246 68.1641 33.9961 68.1641 C 34.2676 68.1641 34.5391 68.0605 34.7451 67.8525 L 46.4248 56.1221 C 46.8369 55.7051 46.8369 55.0288 46.4248 54.6152 L 40.4268 48.5903 C 40.2207 48.3833 39.9492 48.2798 39.6777 48.2798 L 39.6777 48.2798 Z" fill="#ffffff"/>
		</g>
		<path d="M 30.1211 59.6519 L 28.4863 61.2944 L 33.835 66.6675 L 35.4697 65.0249 L 30.1211 59.6519 Z" fill="#ffffff"/>
		<path d="M 32.8672 56.8936 L 31.8926 57.8726 L 37.2412 63.2456 L 38.2158 62.2666 L 32.8672 56.8936 Z" fill="#ffffff"/>
		<path d="M 45.9658 71.5366 L 28.668 71.5366 C 28.1523 71.5366 27.7354 71.9897 27.7354 71.4727 C 27.7354 70.9556 28.1523 70.5366 28.668 70.5366 L 45.9658 70.5366 C 46.4805 70.5366 46.8975 70.5557 46.8975 71.0728 C 46.8975 71.5898 46.4805 71.5366 45.9658 71.5366 Z" fill="#ffffff"/>
	</g>
	<g id="PencilBlue">
		<path d="M 9.1797 66.0493 L 5.0435 61.8945 C 4.8506 61.7007 4.5703 61.6221 4.3057 61.6919 C 4.041 61.7593 3.832 61.9624 3.7554 62.2251 L 1.1338 69.0137 C 1.0542 69.2861 1.1294 69.5796 1.3291 69.7808 C 1.4761 69.9282 1.8154 70.022 2.0928 69.9771 L 8.8496 67.3433 C 9.1118 67.2656 9.3145 67.0557 9.3818 66.7905 C 9.4497 66.5244 9.3726 66.2432 9.1797 66.0493 Z" fill="#6a95c2"/>
		<g>
			<path d="M 15.6772 50.4106 L 20.6128 55.3682 L 9.9956 66.0322 L 5.061 61.0747 L 15.6772 50.4106 L 15.6772 50.4106 ZM 15.6777 48.2798 C 15.4058 48.2798 15.1348 48.3833 14.9282 48.5903 L 3.249 60.3218 C 2.8364 60.7368 2.8359 61.4141 3.249 61.8276 L 9.2461 67.8525 C 9.4531 68.0605 9.7246 68.1641 9.9961 68.1641 C 10.2681 68.1641 10.5391 68.0605 10.7451 67.8525 L 22.4243 56.1221 C 22.8374 55.7051 22.8374 55.0288 22.4243 54.6152 L 16.4268 48.5903 C 16.2202 48.3833 15.9492 48.2798 15.6777 48.2798 L 15.6777 48.2798 Z" fill="#6a95c2"/>
		</g>
		<path d="M 6.1211 59.6519 L 4.4863 61.2944 L 9.835 66.6675 L 11.4697 65.0249 L 6.1211 59.6519 Z" fill="#6a95c2"/>
		<path d="M 8.8667 56.8936 L 7.8921 57.8726 L 13.2412 63.2456 L 14.2153 62.2666 L 8.8667 56.8936 Z" fill="#6a95c2"/>
		<path d="M 21.9658 71.5366 L 4.6675 71.5366 C 4.1528 71.5366 3.7358 71.9897 3.7358 71.4727 C 3.7358 70.9556 4.1528 70.5366 4.6675 70.5366 L 21.9658 70.5366 C 22.4805 70.5366 22.8975 70.5557 22.8975 71.0728 C 22.8975 71.5898 22.4805 71.5366 21.9658 71.5366 Z" fill="#6a95c2"/>
	</g>
  
	<g id="NoteWhite">
		<path d="M 36.9736 47.0498 C 36.5225 47.0498 36.1299 46.7119 36.0713 46.2495 C 36.0088 45.748 36.3613 45.2896 36.8604 45.2261 C 39.1104 44.9395 40.4707 44.0327 42.1162 39.6597 C 43.7617 35.2866 45.1016 31.0903 45.6709 29.2588 L 33.9834 26.9185 L 30.5 36.6167 C 30.3301 37.0933 29.8076 37.3398 29.335 37.1665 C 28.8613 36.9946 28.6172 36.4702 28.7881 35.9946 L 32.5361 25.5562 C 32.6904 25.1289 33.1318 24.876 33.5703 24.9697 L 47.0166 27.6611 C 47.2676 27.7114 47.4863 27.8662 47.6191 28.0869 C 47.751 28.3086 47.7842 28.5747 47.7109 28.8218 C 47.6934 28.877 46.0303 34.4346 43.8203 40.3066 C 42.1035 44.8652 40.3428 46.6279 37.0898 47.0425 C 37.0508 47.0469 37.0117 47.0498 36.9736 47.0498 Z" fill="#ffffff"/>
		<path d="M 36.959 47.0308 C 35.8496 47.1309 34.5459 46.502 34.5459 46.502 L 26.9619 43.0405 C 26.9619 43.0405 23.376 41.9116 24.4526 37.2202 L 34.8115 41.4287 C 34.8115 41.4287 34.4121 45.5864 37.6563 45.1289 C 38.2334 45.7207 37.9971 46.8452 36.959 47.0308 Z" fill="#ffffff"/>
	</g>
	<g id="NoteBlue">
		<path d="M 12.9741 47.0498 C 12.5225 47.0498 12.1299 46.7119 12.0713 46.2495 C 12.0083 45.748 12.3613 45.2896 12.8599 45.2261 C 15.1104 44.9395 16.4707 44.0327 18.1162 39.6597 C 19.7622 35.2866 21.1021 31.0903 21.6709 29.2588 L 9.9829 26.9185 L 6.5005 36.6167 C 6.3306 37.0933 5.8076 37.3398 5.3345 37.1665 C 4.8618 36.9946 4.6172 36.4702 4.7881 35.9946 L 8.5366 25.5562 C 8.6904 25.1289 9.1323 24.876 9.5703 24.9697 L 23.0161 27.6611 C 23.2681 27.7114 23.4863 27.8662 23.6191 28.0869 C 23.7505 28.3086 23.7842 28.5747 23.7104 28.8218 C 23.6938 28.877 22.0303 34.4346 19.8198 40.3066 C 18.104 44.8652 16.3428 46.6279 13.0894 47.0425 C 13.0503 47.0469 13.0122 47.0498 12.9741 47.0498 Z" fill="#6a95c2"/>
		<path d="M 12.959 47.0308 C 11.8491 47.1309 10.5459 46.502 10.5459 46.502 L 2.9619 43.0405 C 2.9619 43.0405 -0.624 41.9116 0.4526 37.2202 L 10.8115 41.4287 C 10.8115 41.4287 10.4126 45.5864 13.6558 45.1289 C 14.2339 45.7207 13.9971 46.8452 12.959 47.0308 Z" fill="#6a95c2"/>
	</g>
  
	<path id="ReloadWhite" d="M 30.6631 19.3228 L 36.5 22.5776 L 36.5 20.7598 C 41.5186 20.3481 45.4512 16.583 45.4512 11.9995 C 45.4512 9.6118 44.7852 7.4497 43.0547 5.8643 L 40.5977 7.8643 C 41.79 8.9204 42.1221 10.3828 42.1221 11.9995 C 42.1221 14.9409 39.6768 17.373 36.5 17.769 L 36.5 16.0679 L 30.6621 19.3228 L 30.6631 19.3228 ZM 41.7559 4.6772 L 35.5 1.4224 L 35.5 3.2407 C 30.4814 3.6519 26.5488 7.416 26.5488 12.0005 C 26.5488 14.3882 27.2012 16.5518 28.9336 18.1377 L 31.3916 16.1367 C 30.1973 15.0815 29.877 13.6182 29.877 12.0005 C 29.877 9.0581 32.3232 6.6235 35.5 6.2271 L 35.5 7.9321 L 41.7559 4.6772 Z" fill="#ffffff"/>
	<path id="ReloadBlue" d="M 6.6631 19.3228 L 12.5 22.5776 L 12.5 20.7598 C 17.5186 20.3481 21.4512 16.583 21.4512 11.9995 C 21.4512 9.6118 20.7852 7.4497 19.0547 5.8643 L 16.5981 7.8643 C 17.79 8.9204 18.1221 10.3828 18.1221 11.9995 C 18.1221 14.9409 15.6768 17.373 12.5 17.769 L 12.5 16.0679 L 6.6626 19.3228 L 6.6631 19.3228 ZM 17.7559 4.6772 L 11.5 1.4224 L 11.5 3.2407 C 6.481 3.6519 2.5488 7.416 2.5488 12.0005 C 2.5488 14.3882 3.2012 16.5518 4.9336 18.1377 L 7.3916 16.1367 C 6.1973 15.0815 5.8765 13.6182 5.8765 12.0005 C 5.8765 9.0581 8.3228 6.6235 11.5 6.2271 L 11.5 7.9321 L 17.7559 4.6772 Z" fill="#6a95c2"/>
</svg>


